<svg width="52" height="69" viewBox="0 0 52 69" fill="none" xmlns="http://www.w3.org/2000/svg">
<path d="M50.5327 1.46924H1.46729V67.5309H50.5327V1.46924Z" stroke="#150500" stroke-miterlimit="10"/>
<path d="M46.701 6.81787H5.39258V20.612H46.701V6.81787Z" stroke="#150500" stroke-miterlimit="10"/>
<path d="M46.701 28.1191H5.39258V63.7774H46.701V28.1191Z" stroke="#150500" stroke-miterlimit="10"/>
<path d="M46.701 45.9482H5.39258V63.7774H46.701V45.9482Z" stroke="#150500" stroke-miterlimit="10"/>
<path d="M46.6072 28.1191H25.7661V63.7774H46.6072V28.1191Z" stroke="#150500" stroke-miterlimit="10"/>
<path d="M10.3457 37.5029H20.6261" stroke="#150500" stroke-miterlimit="10"/>
<path d="M31.2803 55.332H41.5606" stroke="#150500" stroke-miterlimit="10"/>
<path d="M30.9067 37.5029H41.1871" stroke="#150500" stroke-miterlimit="10"/>
<path d="M36.4204 32.3418V42.6639" stroke="#150500" stroke-miterlimit="10"/>
<path d="M11.8413 58.9917L19.131 51.6724" stroke="#150500" stroke-miterlimit="10"/>
<path d="M11.8413 51.6724L19.131 58.9917" stroke="#150500" stroke-miterlimit="10"/>
<path d="M36.4204 52.5169C36.9366 52.5169 37.355 52.0968 37.355 51.5785C37.355 51.0603 36.9366 50.6401 36.4204 50.6401C35.9043 50.6401 35.4858 51.0603 35.4858 51.5785C35.4858 52.0968 35.9043 52.5169 36.4204 52.5169Z" fill="#150500"/>
<path d="M36.4204 59.5545C36.9366 59.5545 37.355 59.1344 37.355 58.6161C37.355 58.0979 36.9366 57.6777 36.4204 57.6777C35.9043 57.6777 35.4858 58.0979 35.4858 58.6161C35.4858 59.1344 35.9043 59.5545 36.4204 59.5545Z" fill="#150500"/>
</svg>
