<svg width="64" height="62" viewBox="0 0 64 62" fill="none" xmlns="http://www.w3.org/2000/svg">
<path d="M41.9818 60.5941C47.5813 60.5941 52.1258 56.0536 52.1258 50.459C52.1258 49.8914 52.0446 49.3238 51.9635 48.7563C51.8012 47.9454 51.5577 47.1346 51.3143 46.4049L34.3535 43.7292C33.1362 45.1076 32.2436 46.8103 32.0001 48.7563C27.6179 47.2968 23.6415 44.7833 20.4766 41.54" stroke="#150500" stroke-miterlimit="10"/>
<path d="M1.40576 20.0541C1.40576 14.4595 5.95026 9.91895 11.5497 9.91895C12.1178 9.91895 12.6859 10 13.2539 10.0811" stroke="#150500" stroke-miterlimit="10"/>
<path d="M20.4764 41.5406C17.2304 38.2973 14.7958 34.4054 13.2539 30.0271C15.2016 29.7027 16.9058 28.8919 18.2853 27.5946L15.6073 10.7298C14.877 10.4054 14.0654 10.1622 13.2539 10.0811C12.6859 10 12.1178 9.91895 11.5497 9.91895C5.95026 9.91895 1.40576 14.4595 1.40576 20.0541C1.40576 42.4325 19.5838 60.5946 41.9817 60.5946C47.5812 60.5946 52.1257 56.0541 52.1257 50.4595C52.1257 49.8919 52.0445 49.3244 51.9634 48.7568" stroke="#150500" stroke-miterlimit="10"/>
<path d="M32.5679 21.0269C38.3297 21.0269 42.9553 25.6485 42.9553 31.4052" stroke="#150500" stroke-miterlimit="10"/>
<path d="M33.8667 11.9458C43.9295 11.9458 52.0447 20.0539 52.0447 30.108" stroke="#150500" stroke-miterlimit="10"/>
<path d="M33.7041 1.40527C49.691 1.40527 62.5942 14.2972 62.5942 30.2701" stroke="#150500" stroke-miterlimit="10"/>
</svg>
