<svg width="24" height="24" viewBox="0 0 24 24" fill="none" xmlns="http://www.w3.org/2000/svg">
<path d="M23.9232 18.3936C23.8464 18.0096 23.7312 17.6256 23.616 17.28L15.5904 16.0128C15.0144 16.6656 14.592 17.472 14.4768 18.3936C12.4032 17.664 10.56 16.4736 9.024 14.976C7.488 13.44 6.336 11.5968 5.6064 9.5232C6.528 9.3696 7.3344 8.9856 7.9872 8.3712L6.72 0.384C6.3744 0.2304 5.9904 0.1152 5.6064 0.0768C5.3376 0.0384 5.0688 0 4.8 0C2.1504 0 0 2.1504 0 4.8C0 15.3984 8.6016 24 19.2 24C21.8496 24 24 21.8496 24 19.2C24 18.9312 23.9616 18.6624 23.9232 18.3936Z" fill="white"/>
</svg>
