<svg width="82" height="54" viewBox="0 0 82 54" fill="none" xmlns="http://www.w3.org/2000/svg">
<g clip-path="url(#clip0)">
<path d="M77.5122 24.1983V24.5232H55.1561V11.0435H69.8426L77.5122 24.1983Z" stroke="#150500" stroke-miterlimit="10"/>
<path d="M6.77218 45.3927C7.75128 41.9822 10.9334 39.5461 14.6866 39.5461C18.4398 39.5461 21.6219 41.9822 22.601 45.3927H48.6287V0.40625H0.40802V45.3927H6.77218Z" stroke="#150500" stroke-miterlimit="10"/>
<path d="M14.768 53.5941C18.0125 53.5941 20.6426 50.9765 20.6426 47.7475C20.6426 44.5185 18.0125 41.9009 14.768 41.9009C11.5236 41.9009 8.89343 44.5185 8.89343 47.7475C8.89343 50.9765 11.5236 53.5941 14.768 53.5941Z" stroke="#150500" stroke-miterlimit="10"/>
<path d="M74.5747 45.3923C73.5956 41.9818 70.4952 39.5457 66.7419 39.5457C62.9887 39.5457 59.8066 41.9818 58.8275 45.3923H51.6475V7.30811H70.9847L81.0205 24.5231V45.3111H74.7379H74.5747V45.3923Z" stroke="#150500" stroke-miterlimit="10"/>
<path d="M66.7421 53.5941C69.9866 53.5941 72.6167 50.9765 72.6167 47.7475C72.6167 44.5185 69.9866 41.9009 66.7421 41.9009C63.4976 41.9009 60.8675 44.5185 60.8675 47.7475C60.8675 50.9765 63.4976 53.5941 66.7421 53.5941Z" stroke="#150500" stroke-miterlimit="10"/>
<path d="M15.7472 18.1894L33.1262 30.6135C33.0446 32.0751 33.6974 33.4556 35.0028 34.3488C36.5531 35.4045 38.5113 35.4045 39.9799 34.5112L36.961 32.7247C36.6347 31.9127 36.7979 31.1007 37.2874 30.4511C37.6954 29.9638 38.2665 29.5578 38.9193 29.4766L42.0197 31.3443C42.2645 29.7202 41.6118 28.0962 40.2247 27.1217C39.0008 26.2285 37.369 26.0661 36.0635 26.5533L18.6029 14.2105C19.0109 12.018 18.1949 9.7443 16.2367 8.36385C14.4417 7.0646 12.0756 6.9834 10.199 7.87663L13.789 10.9623C13.9522 11.8556 13.7074 12.7488 13.2179 13.3984C12.6467 14.2105 11.6676 14.7789 10.5253 14.6977L7.01688 11.7744C6.44574 13.9669 7.34325 16.4029 9.30145 17.8646C11.4228 19.2451 13.8706 19.2451 15.7472 18.1894Z" stroke="#150500" stroke-miterlimit="10"/>
</g>
<defs>
<clipPath id="clip0">
<rect width="81.4286" height="54" fill="white"/>
</clipPath>
</defs>
</svg>
