<svg width="66" height="50" viewBox="0 0 66 50" fill="none" xmlns="http://www.w3.org/2000/svg">
<path d="M7.17047 1.08496V8.25544H0" stroke="#150500" stroke-miterlimit="10"/>
<path d="M65.4619 1V49H0.505798V7.66432L7.25448 1H49.9399H65.4619Z" stroke="#150500" stroke-miterlimit="10" stroke-linejoin="bevel"/>
<path d="M8.68961 15.7627L8.26782 43.3479H35.4313L8.68961 15.7627Z" stroke="#150500" stroke-miterlimit="10"/>
<path d="M12.4007 25.7168L12.232 39.3829H25.645L12.4007 25.7168Z" stroke="#150500" stroke-miterlimit="10"/>
<path d="M45.7223 28.6698C50.2416 28.6698 53.9051 25.0062 53.9051 20.487C53.9051 15.9678 50.2416 12.3042 45.7223 12.3042C41.2031 12.3042 37.5396 15.9678 37.5396 20.487C37.5396 25.0062 41.2031 28.6698 45.7223 28.6698Z" stroke="#150500" stroke-miterlimit="10" stroke-linecap="square"/>
<path d="M42.6014 9.18248L43.4449 5.4707H48.3377L49.1813 9.26684C50.0249 9.51991 50.6998 9.85735 51.459 10.1948L54.749 8.08582L58.2077 11.5445L56.0987 14.8345C56.5205 15.5937 56.7736 16.1842 57.0267 17.0278L60.9072 17.8714V22.9329L57.0267 23.7765C56.7736 24.6201 56.5205 25.2106 56.0987 25.9698L58.2077 29.3442L54.749 32.8029L51.459 30.6939C50.7841 31.1157 49.9406 31.4531 49.1813 31.7062L48.3377 35.5023H43.4449L42.6857 31.7906C41.8421 31.5375 40.9985 31.2001 40.2393 30.7783L37.1181 32.8029L33.6594 29.3442L35.684 26.3073C35.2622 25.548 34.8404 24.7044 34.6717 23.7765L31.1286 22.9329V18.0401L34.6717 17.2809C34.9247 16.4373 35.2622 15.5094 35.684 14.7501L33.7437 11.6289L37.2024 8.17018L40.3237 10.1948C40.9142 9.68863 41.7578 9.3512 42.6014 9.18248Z" stroke="#150500" stroke-miterlimit="10" stroke-linecap="square"/>
</svg>
