<svg width="175" height="175" viewBox="0 0 175 175" fill="none" xmlns="http://www.w3.org/2000/svg">
<path d="M49.5761 76.6401C49.5761 76.6401 30.3977 98.222 36.0384 127.652C40.551 151.756 60.0114 171.657 84.5485 174.459C98.6502 176.141 110.496 173.899 121.495 167.733C142.648 155.68 155.057 132.417 153.929 108.312C153.083 93.1769 148.288 74.3978 133.623 54.7779C133.623 54.7779 137.007 60.3836 136.725 67.3907C136.161 85.6092 108.804 87.5712 105.419 69.633C105.419 69.0724 105.137 68.5118 105.137 67.9513C104.573 62.9061 105.137 58.1413 106.829 53.3765C108.804 47.7708 111.342 37.6805 105.701 30.3931C98.3682 19.462 91.0353 17.5 91.0353 17.5C91.0353 17.5 97.8041 25.9085 94.4197 34.8777C94.4197 34.8777 91.0353 39.3622 85.1125 43.5665C79.4718 47.4905 61.4216 60.1033 65.088 82.5261C65.6521 86.1698 65.3701 89.5332 64.524 93.1769C63.3958 97.9417 59.1653 102.426 54.6527 101.585C38.0126 97.9417 49.5761 76.6401 49.5761 76.6401Z" fill="url(#paint0_linear)"/>
<circle cx="87.5" cy="87.5" r="87" stroke="#1A1D1F"/>
<path d="M17.5 140L162 44" stroke="#1A1D1F"/>
<defs>
<linearGradient id="paint0_linear" x1="96.3798" y1="204.732" x2="92.3816" y2="23.016" gradientUnits="userSpaceOnUse">
<stop stop-color="white" stop-opacity="0"/>
<stop offset="0.4375" stop-color="#1A1D1F" stop-opacity="0.43"/>
<stop offset="1" stop-color="#1A1D1F"/>
</linearGradient>
</defs>
</svg>
