<svg width="58" height="58" viewBox="0 0 58 58" fill="none" xmlns="http://www.w3.org/2000/svg">
<path d="M16.4305 25.4007C16.4305 25.4007 10.0743 32.5536 11.9438 42.3075C13.4394 50.2964 19.8891 56.8919 28.0214 57.8208C32.6951 58.3782 36.621 57.635 40.2666 55.5914C47.2771 51.5969 51.39 43.8867 51.0161 35.8978C50.7357 30.8815 49.1466 24.6575 44.286 18.1549C44.286 18.1549 45.4077 20.0128 45.3142 22.3352C45.1272 28.3733 36.0602 29.0236 34.9385 23.0783C34.9385 22.8926 34.845 22.7068 34.845 22.521C34.6581 20.8489 34.845 19.2697 35.4059 17.6905C36.0602 15.8326 36.9015 12.4884 35.032 10.0731C32.6016 6.45025 30.1713 5.79999 30.1713 5.79999C30.1713 5.79999 32.4147 8.58682 31.293 11.5594C31.293 11.5594 30.1713 13.0457 28.2083 14.4392C26.3388 15.7397 20.3565 19.9199 21.5716 27.3515C21.7586 28.5591 21.6651 29.6738 21.3847 30.8815C21.0108 32.4607 19.6087 33.947 18.1131 33.6683C12.5981 32.4607 16.4305 25.4007 16.4305 25.4007Z" fill="url(#paint0_linear)"/>
<circle cx="29" cy="29" r="28.5" stroke="#1A1D1F"/>
<path d="M5.7998 46.4L53.6912 14.5829" stroke="#1A1D1F"/>
<defs>
<linearGradient id="paint0_linear" x1="31.9426" y1="67.8542" x2="30.6175" y2="7.62815" gradientUnits="userSpaceOnUse">
<stop stop-color="white" stop-opacity="0"/>
<stop offset="0.4375" stop-color="#1A1D1F" stop-opacity="0.43"/>
<stop offset="1" stop-color="#1A1D1F"/>
</linearGradient>
</defs>
</svg>
