<svg width="90" height="78" viewBox="0 0 90 78" fill="none" xmlns="http://www.w3.org/2000/svg">
<g filter="url(#filter0_d)">
<path d="M44.9004 21.8294L31.2559 35.4741L45.0161 49.2344L58.6606 35.5897L44.9004 21.8294Z" fill="url(#paint0_linear)"/>
<rect x="0.703285" y="0.00378045" width="28.2194" height="28.2194" transform="matrix(0.707107 -0.707107 0.699464 0.714668 4.5217 21.8858)" stroke="#E5343D"/>
<rect x="0.703285" y="0.00378045" width="28.2194" height="28.2194" transform="matrix(0.707107 -0.707107 0.699464 0.714668 4.5217 49.482)" stroke="#E5343D"/>
<rect x="0.703285" y="0.00378045" width="28.2194" height="28.2194" transform="matrix(0.707107 -0.707107 0.699464 0.714668 45.1042 22.3275)" stroke="#E5343D"/>
<rect x="0.703285" y="0.00378045" width="28.2194" height="28.2194" transform="matrix(0.707107 -0.707107 0.699464 0.714668 45.1042 49.482)" stroke="#E5343D"/>
</g>
<defs>
<filter id="filter0_d" x="0.318359" y="0.726318" width="89.6817" height="77.1396" filterUnits="userSpaceOnUse" color-interpolation-filters="sRGB">
<feFlood flood-opacity="0" result="BackgroundImageFix"/>
<feColorMatrix in="SourceAlpha" type="matrix" values="0 0 0 0 0 0 0 0 0 0 0 0 0 0 0 0 0 0 127 0"/>
<feOffset dy="4"/>
<feGaussianBlur stdDeviation="2"/>
<feColorMatrix type="matrix" values="0 0 0 0 0 0 0 0 0 0 0 0 0 0 0 0 0 0 0.25 0"/>
<feBlend mode="normal" in2="BackgroundImageFix" result="effect1_dropShadow"/>
<feBlend mode="normal" in="SourceGraphic" in2="effect1_dropShadow" result="shape"/>
</filter>
<linearGradient id="paint0_linear" x1="57.9727" y1="49.0159" x2="25.6966" y2="15.5466" gradientUnits="userSpaceOnUse">
<stop stop-color="white" stop-opacity="0"/>
<stop offset="1" stop-color="#E5343D"/>
</linearGradient>
</defs>
</svg>
