<svg width="38" height="44" viewBox="0 0 38 44" fill="none" xmlns="http://www.w3.org/2000/svg">
<path d="M26.4072 10.5079L17.6784 6.90457C10.4081 3.90334 2.67875 10.0829 4.00606 17.8355L4.26226 19.3319C4.52612 20.8731 4.42491 22.4546 3.96675 23.9496L3.62395 25.0681C1.77874 31.089 5.89094 37.2963 12.1547 37.9451L20.222 38.7807C26.3799 39.4185 31.6319 34.3646 31.2313 28.1867L30.6759 19.6238C30.6435 19.1242 30.6639 18.6227 30.7367 18.1274C31.2115 14.8953 29.4269 11.7544 26.4072 10.5079Z" fill="url(#paint0_linear)"/>
<path d="M23.9935 14L11.231 17.3919C11.231 17.3919 8.15915 39.9458 23.8114 43H24.1756C39.8278 39.9304 36.7559 17.3919 36.7559 17.3919L23.9935 14Z" stroke="#E5343D" stroke-width="0.5" stroke-miterlimit="10"/>
<path d="M18.4907 28L23.4932 33L29.9965 23.5" stroke="#E5343D" stroke-width="0.5"/>
<defs>
<linearGradient id="paint0_linear" x1="40.4146" y1="19.9522" x2="-24.7663" y2="17.4951" gradientUnits="userSpaceOnUse">
<stop stop-color="white" stop-opacity="0"/>
<stop offset="1" stop-color="#E5343D"/>
</linearGradient>
</defs>
</svg>
