<svg width="41" height="35" viewBox="0 0 41 35" fill="none" xmlns="http://www.w3.org/2000/svg">
<path d="M12.5975 33.9999C12.5975 33.9999 -5.32171 28.7634 3.38765 16.1167C4.38872 14.7335 5.48991 13.4491 6.7913 12.3622C8.59324 10.7814 11.9969 6.82932 8.79345 1C8.79345 1 21.6072 2.77844 19.505 13.6467C19.0044 16.2155 17.6029 18.5868 15.7009 20.5628C13.0981 23.1317 9.09378 28.5658 12.5975 33.9999Z" stroke="#E5343D" stroke-width="0.5" stroke-miterlimit="10"/>
<path d="M17.3022 22.8354C18.4034 21.7486 21.0062 18.9822 21.9071 14.4373C21.9071 14.4373 23.3086 15.4253 24.1095 18.4881C24.9104 21.6498 24.3097 25.0091 22.708 27.8743C21.3065 30.2456 18.9039 33.0121 15.0998 34.0001C14.9997 34.0001 11.2957 28.566 17.3022 22.8354Z" stroke="#E5343D" stroke-width="0.5" stroke-miterlimit="10"/>
<path d="M1.38477 7.42212L26.4117 32.2214" stroke="#E5343D" stroke-width="0.5" stroke-miterlimit="10"/>
<path d="M23.0349 5.17989C15.9458 7.36054 29.7404 20.1447 14.1628 21.8659C6.8009 22.7348 22.6063 34.2158 29.2531 28.5381C35.5242 23.1813 39.7295 21.4299 37.5201 14.4332C35.3106 7.43658 30.124 2.99925 23.0349 5.17989Z" fill="url(#paint0_linear)"/>
<defs>
<linearGradient id="paint0_linear" x1="-0.0738538" y1="25.6355" x2="60.6113" y2="5.15651" gradientUnits="userSpaceOnUse">
<stop stop-color="white" stop-opacity="0"/>
<stop offset="1" stop-color="#E5343D"/>
</linearGradient>
</defs>
</svg>
