<svg width="44" height="32" viewBox="0 0 44 32" fill="none" xmlns="http://www.w3.org/2000/svg">
<path d="M0.990723 23.1513C4.26031 20.8462 7.62897 25.7571 10.9976 23.452C14.2672 21.1469 10.8986 16.236 14.2672 13.9309C17.5368 11.6257 20.9055 16.5366 24.2741 14.2315C27.5437 11.9264 24.1751 7.01552 27.5437 4.61019C30.9124 2.20485 34.281 7.21596 37.5506 4.91085" stroke="#E5343D" stroke-width="0.5" stroke-miterlimit="10"/>
<path d="M6.44006 30.0668C9.70965 27.7617 13.0783 32.6726 16.447 30.3675C19.7166 28.0624 16.3479 23.1515 19.7166 20.8464C22.9861 18.5413 26.3548 23.4522 29.7235 21.147C32.9931 18.8419 29.6244 13.931 32.9931 11.5257C36.3617 9.12038 39.7304 14.1315 43 11.8264" stroke="#E5343D" stroke-width="0.5" stroke-miterlimit="10"/>
<path d="M12.2857 24.8551C19.0709 24.8551 24.5714 19.2911 24.5714 12.4276C24.5714 5.56401 19.0709 0 12.2857 0C5.5005 0 0 5.56401 0 12.4276C0 19.2911 5.5005 24.8551 12.2857 24.8551Z" fill="url(#paint0_linear)"/>
<defs>
<linearGradient id="paint0_linear" x1="11.8595" y1="36.3584" x2="12.9416" y2="-23.0129" gradientUnits="userSpaceOnUse">
<stop stop-color="white" stop-opacity="0"/>
<stop offset="1" stop-color="#E5343D"/>
</linearGradient>
</defs>
</svg>
