<svg width="42" height="34" viewBox="0 0 42 34" fill="none" xmlns="http://www.w3.org/2000/svg">
<path d="M17.6002 19.9334C13.763 26.6828 13.6717 39.0722 6.27141 31.768C-1.12887 24.4638 -2.13384 13.3689 4.07873 6.80434C10.2913 0.239818 19.9756 -3.18113 27.4673 4.0306C34.9589 11.2423 21.9856 11.8895 17.6002 19.9334Z" fill="url(#paint0_linear)"/>
<path d="M24.114 18.857C24.114 18.857 27.8313 12.2856 32.9782 12.5713C37.5533 12.5713 41.2706 14.2856 40.9846 19.4285C40.6987 24.857 35.5517 25.4285 32.4063 25.1427C29.261 24.857 24.9718 21.1427 24.114 18.857Z" stroke="#E5343D" stroke-width="0.5" stroke-miterlimit="10"/>
<path d="M23.8277 18.857C23.8277 18.857 20.1105 12.2856 14.9635 12.5713C10.3884 12.5713 6.67117 14.2856 6.95712 19.4285C7.24306 24.857 12.39 25.4285 15.5354 25.1427C18.6808 24.857 22.684 21.1427 23.8277 18.857Z" stroke="#E5343D" stroke-width="0.5" stroke-miterlimit="10"/>
<defs>
<linearGradient id="paint0_linear" x1="14.359" y1="49.7357" x2="16.0312" y2="-31.4725" gradientUnits="userSpaceOnUse">
<stop stop-color="white" stop-opacity="0"/>
<stop offset="1" stop-color="#E5343D"/>
</linearGradient>
</defs>
</svg>
