<svg width="65" height="68" viewBox="0 0 65 68" fill="none" xmlns="http://www.w3.org/2000/svg">
<g clip-path="url(#clip0)">
<path d="M49.66 7.36667H42.2933V0" stroke="#150500" stroke-miterlimit="10"/>
<path d="M7.80005 19.7603H35.4467" stroke="#150500" stroke-miterlimit="10"/>
<path d="M7.80005 26.0864H21.6667" stroke="#150500" stroke-miterlimit="10"/>
<path d="M18.98 55.7267C22.4466 55.4667 25.6533 53.04 26.6933 49.7467C27.3 47.84 27.04 45.3267 25.22 44.5467C23.7466 43.94 22.0133 44.8067 21.1466 46.1067C20.28 47.4067 20.02 49.0534 19.76 50.6134C19.5866 52.0867 19.3266 53.56 19.76 55.0334C20.1933 56.5067 21.2333 57.8067 22.7933 57.98C24.7866 58.1534 26.3466 56.2467 27.04 54.34C27.4733 53.1267 27.82 51.74 28.6866 50.7867C29.64 49.8334 31.46 49.7467 32.0666 50.96C32.0666 50.3534 32.8466 49.8334 33.3666 50.0934C33.9733 50.3534 34.1466 51.22 33.7133 51.6534C37.2666 52.6934 41.34 51.6534 44.0266 49.0534" stroke="#150500" stroke-miterlimit="10" stroke-linejoin="round"/>
<path d="M55.3801 62.5732L47.3201 60.3198" stroke="#150500" stroke-miterlimit="10"/>
<path d="M49.7467 67.2534L47.32 60.32L56.3334 27.3867C56.94 25.1334 59.28 23.8334 61.5334 24.44C63.7867 25.0467 65.0867 27.3867 64.48 29.64L55.38 62.5734L49.7467 67.2534ZM49.7467 67.2534H0.43335V0.52002H42.9L49.7467 7.36669V51.3067" stroke="#150500" stroke-miterlimit="10" stroke-linejoin="bevel"/>
<path d="M55.8134 29.3799L63.8733 31.5465" stroke="#150500" stroke-miterlimit="10"/>
<path d="M59.28 32.5L52.3467 57.8067" stroke="#150500" stroke-miterlimit="10"/>
</g>
<defs>
<clipPath id="clip0">
<rect width="65" height="67.6867" fill="white"/>
</clipPath>
</defs>
</svg>
