<svg width="14" height="14" viewBox="0 0 14 14" fill="none" xmlns="http://www.w3.org/2000/svg">
<circle opacity="0.7" cx="7" cy="7" r="6.5" stroke="#444647"/>
<path opacity="0.7" d="M6.4115 8.10547V7.81641C6.4115 7.56641 6.46488 7.34896 6.57166 7.16406C6.67843 6.97917 6.87374 6.78255 7.15759 6.57422C7.43103 6.37891 7.61072 6.22005 7.69666 6.09766C7.7852 5.97526 7.82947 5.83854 7.82947 5.6875C7.82947 5.51823 7.76697 5.38932 7.64197 5.30078C7.51697 5.21224 7.34249 5.16797 7.11853 5.16797C6.72791 5.16797 6.28259 5.29557 5.78259 5.55078L5.35681 4.69531C5.93754 4.36979 6.55343 4.20703 7.20447 4.20703C7.74093 4.20703 8.16671 4.33594 8.48181 4.59375C8.79952 4.85156 8.95837 5.19531 8.95837 5.625C8.95837 5.91146 8.89327 6.15885 8.76306 6.36719C8.63285 6.57552 8.38546 6.8099 8.02087 7.07031C7.77087 7.25521 7.61202 7.39583 7.54431 7.49219C7.47921 7.58854 7.44666 7.71484 7.44666 7.87109V8.10547H6.4115ZM6.2865 9.44141C6.2865 9.22266 6.34509 9.05729 6.46228 8.94531C6.57947 8.83333 6.75004 8.77734 6.974 8.77734C7.19014 8.77734 7.35681 8.83464 7.474 8.94922C7.59379 9.0638 7.65369 9.22786 7.65369 9.44141C7.65369 9.64714 7.59379 9.8099 7.474 9.92969C7.35421 10.0469 7.18754 10.1055 6.974 10.1055C6.75525 10.1055 6.58598 10.0482 6.46619 9.93359C6.34639 9.81641 6.2865 9.65234 6.2865 9.44141Z" fill="#444647"/>
</svg>
