<svg width="60" height="64" viewBox="0 0 60 64" fill="none" xmlns="http://www.w3.org/2000/svg">
<path d="M11.2744 20.8562V1H58.6698V63.3104H11.2744V29.2751" stroke="white" stroke-miterlimit="10"/>
<path d="M21.5557 44.7557H51.7616L52.1761 12.4651L21.5557 44.7557ZM46.1239 38.6077H34.7932L46.2897 26.478L46.1239 38.6077Z" stroke="white" stroke-miterlimit="10"/>
<path opacity="0.33" d="M21.5557 44.7557H51.7616L52.1761 12.4651L21.5557 44.7557ZM46.1239 38.6077H34.7932L46.2897 26.478L46.1239 38.6077Z" fill="white"/>
<path d="M27.3857 41.5156V44.7835" stroke="white" stroke-miterlimit="10"/>
<path d="M30.4268 41.5156V44.7835" stroke="white" stroke-miterlimit="10"/>
<path d="M33.4668 41.5156V44.7835" stroke="white" stroke-miterlimit="10"/>
<path d="M36.5059 41.5156V44.7835" stroke="white" stroke-miterlimit="10"/>
<path d="M39.5469 41.5156V44.7835" stroke="white" stroke-miterlimit="10"/>
<path d="M42.5859 41.5156V44.7835" stroke="white" stroke-miterlimit="10"/>
<path d="M45.627 41.5156V44.7835" stroke="white" stroke-miterlimit="10"/>
<path d="M48.666 41.5156V44.7835" stroke="white" stroke-miterlimit="10"/>
<path d="M48.666 41.5156H51.8994" stroke="white" stroke-miterlimit="10"/>
<path d="M48.666 38.4695H51.8994" stroke="white" stroke-miterlimit="10"/>
<path d="M48.666 35.4231H51.8994" stroke="white" stroke-miterlimit="10"/>
<path d="M48.666 32.3767H51.8994" stroke="white" stroke-miterlimit="10"/>
<path d="M48.666 29.6074H51.8994" stroke="white" stroke-miterlimit="10"/>
<path d="M48.666 26.8381H51.8994" stroke="white" stroke-miterlimit="10"/>
<path d="M48.666 24.0686H51.8994" stroke="white" stroke-miterlimit="10"/>
<path d="M48.666 21.2993H51.8994" stroke="white" stroke-miterlimit="10"/>
<path d="M48.666 18.53H51.8994" stroke="white" stroke-miterlimit="10"/>
<path d="M24.8984 8.61572H44.5475" stroke="white" stroke-miterlimit="10"/>
<path d="M21.5557 12.7698H47.4504" stroke="white" stroke-miterlimit="10"/>
<path d="M15.1719 34.343H20.9754" stroke="white" stroke-miterlimit="10"/>
<path d="M15.1719 38.6079H18.9027" stroke="white" stroke-miterlimit="10"/>
<path d="M5.2799 20.9387H30.88L34.9235 25.2152L31.1118 29.2465H5.69197C4.66179 29.2465 3.6316 28.9469 2.7817 28.3476C1.82878 27.6667 0.92737 26.5771 1.00463 24.8338C1.10765 22.9271 2.16359 21.9738 3.11651 21.4563C3.78613 21.1022 4.53301 20.9387 5.2799 20.9387Z" stroke="white" stroke-miterlimit="10"/>
<path opacity="0.31" d="M5.2799 20.9387H30.88L34.9235 25.2152L31.1118 29.2465H5.69197C4.66179 29.2465 3.6316 28.9469 2.7817 28.3476C1.82878 27.6667 0.92737 26.5771 1.00463 24.8338C1.10765 22.9271 2.16359 21.9738 3.11651 21.4563C3.78613 21.1022 4.53302 20.9387 5.2799 20.9387Z" fill="white"/>
<path d="M30.4262 20.8562L28.6299 25.0656L30.6749 29.275" stroke="white" stroke-miterlimit="10"/>
<path d="M28.6303 25.0657H7.98633" stroke="white" stroke-miterlimit="10"/>
<path d="M15.1719 52.427H51.8998" stroke="white" stroke-miterlimit="10"/>
<path d="M15.1719 56.9963H51.8998" stroke="white" stroke-miterlimit="10"/>
<path d="M5.5 20.9387V29.3299" stroke="white" stroke-miterlimit="10"/>
</svg>
