<svg width="60" height="64" viewBox="0 0 60 64" fill="none" xmlns="http://www.w3.org/2000/svg">
<path d="M11.2744 20.8562V1H58.6698V63.3104H11.2744V29.2751" stroke="#1A1D1F" stroke-miterlimit="10"/>
<path d="M21.5557 44.7557H51.7616L52.1761 12.4651L21.5557 44.7557ZM46.1239 38.6077H34.7932L46.2897 26.478L46.1239 38.6077Z" stroke="#1A1D1F" stroke-miterlimit="10"/>
<path opacity="0.33" d="M46.1239 39.1077H46.6171L46.6238 38.6146L46.7896 26.4848L46.8071 25.2052L45.9268 26.134L34.4303 38.2638L33.6304 39.1077H34.7932H46.1239ZM51.6597 13.7363L51.2679 44.2557H22.7189L51.6597 13.7363Z" fill="white" stroke="#1A1D1F"/>
<path d="M27.3857 41.5156V44.7835" stroke="#1A1D1F" stroke-miterlimit="10"/>
<path d="M30.4268 41.5156V44.7835" stroke="#1A1D1F" stroke-miterlimit="10"/>
<path d="M33.4668 41.5156V44.7835" stroke="#1A1D1F" stroke-miterlimit="10"/>
<path d="M36.5059 41.5156V44.7835" stroke="#1A1D1F" stroke-miterlimit="10"/>
<path d="M39.5469 41.5156V44.7835" stroke="#1A1D1F" stroke-miterlimit="10"/>
<path d="M42.5859 41.5156V44.7835" stroke="#1A1D1F" stroke-miterlimit="10"/>
<path d="M45.627 41.5156V44.7835" stroke="#1A1D1F" stroke-miterlimit="10"/>
<path d="M48.666 41.5156V44.7835" stroke="#1A1D1F" stroke-miterlimit="10"/>
<path d="M48.666 41.5156H51.8994" stroke="#1A1D1F" stroke-miterlimit="10"/>
<path d="M48.666 38.4694H51.8994" stroke="#1A1D1F" stroke-miterlimit="10"/>
<path d="M48.666 35.4231H51.8994" stroke="#1A1D1F" stroke-miterlimit="10"/>
<path d="M48.666 32.3768H51.8994" stroke="#1A1D1F" stroke-miterlimit="10"/>
<path d="M48.666 29.6073H51.8994" stroke="#1A1D1F" stroke-miterlimit="10"/>
<path d="M48.666 26.8381H51.8994" stroke="#1A1D1F" stroke-miterlimit="10"/>
<path d="M48.666 24.0687H51.8994" stroke="#1A1D1F" stroke-miterlimit="10"/>
<path d="M48.666 21.2994H51.8994" stroke="#1A1D1F" stroke-miterlimit="10"/>
<path d="M48.666 18.53H51.8994" stroke="#1A1D1F" stroke-miterlimit="10"/>
<path d="M24.8984 8.61584H44.5475" stroke="#1A1D1F" stroke-miterlimit="10"/>
<path d="M21.5557 12.7697H47.4504" stroke="#1A1D1F" stroke-miterlimit="10"/>
<path d="M15.1719 34.343H20.9754" stroke="#1A1D1F" stroke-miterlimit="10"/>
<path d="M15.1719 38.6078H18.9027" stroke="#1A1D1F" stroke-miterlimit="10"/>
<path d="M5.2799 20.9387H30.88L34.9235 25.2152L31.1118 29.2465H5.69197C4.66179 29.2465 3.6316 28.9469 2.7817 28.3476C1.82878 27.6667 0.92737 26.5771 1.00463 24.8338C1.10765 22.9271 2.16359 21.9738 3.11651 21.4563C3.78613 21.1022 4.53301 20.9387 5.2799 20.9387Z" stroke="#1A1D1F" stroke-miterlimit="10"/>
<path opacity="0.31" d="M5.2799 21.4387H30.6646L34.2353 25.2152L30.8964 28.7465H5.69197C4.75709 28.7465 3.82986 28.4744 3.07114 27.9399C2.2082 27.3229 1.43753 26.3782 1.50404 24.8584C1.59572 23.177 2.50517 22.3579 3.35268 21.897C3.94178 21.586 4.60599 21.4387 5.2799 21.4387Z" fill="white" stroke="#1A1D1F"/>
<path d="M30.4262 20.8562L28.6299 25.0656L30.6749 29.275" stroke="#1A1D1F" stroke-miterlimit="10"/>
<path d="M28.6303 25.0657H7.98633" stroke="#1A1D1F" stroke-miterlimit="10"/>
<path d="M15.1719 52.4269H51.8998" stroke="#1A1D1F" stroke-miterlimit="10"/>
<path d="M15.1719 56.9962H51.8998" stroke="#1A1D1F" stroke-miterlimit="10"/>
<path d="M5.5 20.9387V29.3299" stroke="#1A1D1F" stroke-miterlimit="10"/>
</svg>
