<svg width="169" height="182" viewBox="0 0 169 182" fill="none" xmlns="http://www.w3.org/2000/svg">
<path d="M30.6826 58.3618V1H167.601V181.006H30.6826V82.6826" stroke="white" stroke-miterlimit="10"/>
<path d="M60.3818 127.404H147.642L148.84 34.1211L60.3818 127.404ZM131.356 109.643H98.6232L131.835 74.6024L131.356 109.643Z" stroke="white" stroke-miterlimit="10"/>
<path opacity="0.33" d="M60.3818 127.404H147.642L148.84 34.1211L60.3818 127.404ZM131.356 109.643H98.6232L131.835 74.6024L131.356 109.643Z" fill="white"/>
<path d="M77.2266 118.044V127.484" stroke="white" stroke-miterlimit="10"/>
<path d="M86.0088 118.044V127.484" stroke="white" stroke-miterlimit="10"/>
<path d="M94.791 118.044V127.484" stroke="white" stroke-miterlimit="10"/>
<path d="M103.572 118.044V127.484" stroke="white" stroke-miterlimit="10"/>
<path d="M112.354 118.044V127.484" stroke="white" stroke-miterlimit="10"/>
<path d="M121.137 118.044V127.484" stroke="white" stroke-miterlimit="10"/>
<path d="M129.919 118.044V127.484" stroke="white" stroke-miterlimit="10"/>
<path d="M138.7 118.044V127.484" stroke="white" stroke-miterlimit="10"/>
<path d="M138.7 118.044H148.041" stroke="white" stroke-miterlimit="10"/>
<path d="M138.7 109.244H148.041" stroke="white" stroke-miterlimit="10"/>
<path d="M138.7 100.443H148.041" stroke="white" stroke-miterlimit="10"/>
<path d="M138.7 91.6431H148.041" stroke="white" stroke-miterlimit="10"/>
<path d="M138.7 83.6426H148.041" stroke="white" stroke-miterlimit="10"/>
<path d="M138.7 75.6426H148.041" stroke="white" stroke-miterlimit="10"/>
<path d="M138.7 67.6421H148.041" stroke="white" stroke-miterlimit="10"/>
<path d="M138.7 59.6421H148.041" stroke="white" stroke-miterlimit="10"/>
<path d="M138.7 51.6416H148.041" stroke="white" stroke-miterlimit="10"/>
<path d="M70.041 23.001H126.804" stroke="white" stroke-miterlimit="10"/>
<path d="M60.3818 35.001H135.188" stroke="white" stroke-miterlimit="10"/>
<path d="M41.9395 97.3232H58.705" stroke="white" stroke-miterlimit="10"/>
<path d="M41.9395 109.644H52.7173" stroke="white" stroke-miterlimit="10"/>
<path d="M13.364 58.6001H87.319L99 70.9542L87.9886 82.6001H14.5544C11.5784 82.6001 8.60233 81.7345 6.14708 80.0034C3.39423 78.0362 0.790181 74.8886 1.01339 69.8526C1.31099 64.3444 4.36145 61.5903 7.1143 60.0952C9.04873 59.0722 11.2064 58.6001 13.364 58.6001Z" stroke="white" stroke-miterlimit="10"/>
<path opacity="0.31" d="M13.364 58.6001H87.319L99 70.9542L87.9886 82.6001H14.5544C11.5784 82.6001 8.60233 81.7345 6.14708 80.0034C3.39423 78.0362 0.790181 74.8886 1.01339 69.8526C1.31099 64.3444 4.36145 61.5903 7.1143 60.0952C9.04873 59.0722 11.2064 58.6001 13.364 58.6001Z" fill="white"/>
<path d="M86.0087 58.3618L80.8193 70.5222L86.7272 82.6826" stroke="white" stroke-miterlimit="10"/>
<path d="M80.819 70.5225H21.1816" stroke="white" stroke-miterlimit="10"/>
<path d="M41.9395 149.565H148.041" stroke="white" stroke-miterlimit="10"/>
<path d="M41.9395 162.765H148.041" stroke="white" stroke-miterlimit="10"/>
<path d="M14 58.6001V82.8409" stroke="white" stroke-miterlimit="10"/>
</svg>
